<svg version="1" xmlns="http://www.w3.org/2000/svg" width="1397.333" height="1397.333" viewBox="0 0 1048.000000 1048.000000"><path d="M515.8 192.5c-.2.2-7.9.6-17.3.9-18.9.8-27.8 1.3-34.5 2-2.5.3-7.6.8-11.5 1.2-3.8.3-8.1.8-9.5 1-1.4.3-4.7.6-7.5.9-7.9.6-18.5 2-31 4-2.2.3-5.3.8-7 1.1-1.6.3-3.8.7-4.7 1-.9.3-3.2.7-5 .9-1.8.2-4.6.7-6.3 1-10.8 2.2-23.3 4.7-25 5.1-1.1.3-3.1.7-4.4 1-1.4.3-2.8.7-3.1.9-.4.2-2.2.7-4.1 1-4 .8-6.2 1.3-6.9 1.5l-1.5.5c-.5.1-1.2.3-1.5.4-.3.2-1.2.4-2 .6-.8.1-3.5.8-6 1.5s-5.2 1.3-6 1.5c-.8.2-4.2 1.2-7.5 2.3-3.3 1.1-7.6 2.3-9.5 2.7-1.9.4-3.9 1-4.5 1.3-.5.4-1.9.8-2.9.9-1.1.2-2.5.8-3.3 1.4-.7.6-1.3.8-1.3.4s-.7-.2-1.5.5-1.5 1-1.5.7c0-.3-3.7.8-8.2 2.4-4.6 1.7-8.7 3.1-9.3 3.2-.5.1-1.2.4-1.5.7-.3.3-2.3 1.1-4.5 1.9-2.2.7-5.3 1.9-7 2.6-1.6.7-7.6 3.1-13.2 5.4-16.7 6.7-43.3 19.3-56.8 27.1-3.8 2.2-8.1 4.5-9.5 5.2-1.4.7-3.9 2.3-5.6 3.5-1.7 1.3-3.4 2.3-3.7 2.3-.6 0-10.9 6.1-11.7 7-.3.3-4.5 3.2-9.5 6.4-14.6 9.6-32.3 23.5-45 35.3-6.5 6-19.6 18.9-21.8 21.3-8.4 9.3-18.5 21.3-22.9 27.3-2 2.9-4.1 5.6-4.5 6.2-1.3 1.7-6.7 9.6-7.8 11.5-.5 1-3.4 5.9-6.3 11s-5.1 9.9-4.8 10.8c.3.9-.9 4.2-2.5 7.2-1.7 3-2.8 4.5-2.5 3.2.2-1.3 0-2-.6-1.6-.5.3-.7 1.5-.4 2.7.3 1.1-.6 4.6-1.9 7.9-1.3 3.2-2.2 5.8-1.9 5.8.2 0-.2 1.3-1.1 3-.9 1.6-1.3 3-.9 3s.2.6-.4 1.3c-.6.7-1.4 2.8-1.7 4.6-.3 1.9-1 4.1-1.4 5-.8 1.4-3.5 13-4.7 20.1-2.2 13.1-2.3 14-3 24.5-1.1 17.3-.4 30.7 2.1 45 .2 1.1.4 3.2.4 4.7.1 1.6.6 2.8 1.2 2.8.7 0 .9-1 .4-2.8-.4-1.5-.9-3.8-1-5.2-.2-1.4-.7-5.9-1.1-10-1.5-12.7-.8-43.3 1.1-53 .3-1.4.8-3.8 1.1-5.5 4-22.3 14.1-50.4 25.4-70.5 5.1-9.2 21.4-33.5 24.4-36.6.6-.6 2.5-2.8 4.1-4.8 9.2-11.6 25.4-29 36.6-39.1 2.4-2.3 7.8-6.8 11.9-10 4.1-3.3 7.7-6.2 8-6.5 1-1.2 19.9-14.9 24.1-17.5.8-.6 3.7-2.4 6.3-4 2.7-1.7 5.4-3.5 6-4 .7-.6 2.7-1.8 4.6-2.8 6.5-3.5 9.5-5.2 10-5.7.3-.3 2.3-1.4 4.5-2.5s6.5-3.6 9.5-5.6c5-3.3 21.6-11.6 38-19.1 3.6-1.6 7.2-3.3 8-3.7 2.1-1.1 28.7-11.6 33.5-13.2 2.2-.8 4.2-1.6 4.5-1.9.3-.3 1.2-.7 2-.8.8-.2 7.4-2.3 14.6-4.7 7.2-2.4 14.3-4.6 15.7-4.9 1.5-.2 3.1-.7 3.7-1.1.5-.3 1.8-.8 2.7-1 5.2-1.3 18-4.7 19.3-5.2.8-.3 2.1-.7 2.9-.9.8-.1 4.6-1 8.5-1.8 3.9-.9 8-1.8 9.1-2 1.1-.3 5.4-1.2 9.5-2.1 4.1-.9 8.4-1.8 9.5-2.1 1.8-.4 28.3-5.1 33-5.8 1.1-.2 3.9-.7 6.3-1.1 6.8-1.1 9.4-1.5 15.2-2 3-.3 7.1-.7 9-1 7.9-1 11.9-1.4 19.5-2.1 4.4-.3 9.6-.8 11.5-1 3.8-.3 18.5-1.4 26.5-1.9 6.8-.5 82-.5 87 0 2.2.2 8.3.6 13.5.9 5.2.4 11.1.9 13 1.2 1.9.2 6.5.7 10.1 1 3.6.2 7.5.6 8.6.8 1.1.3 4.2.7 6.9 1 2.7.4 6.5.9 8.4 1.1 1.9.3 5.9.7 8.8 1 2.9.4 6.3.8 7.5 1.1 1.2.3 6.2 1.1 11.1 2 4.9.8 9.2 1.7 9.7 1.9.4.3 1 .2 1.3-.3.2-.4-.3-.9-1.2-.9-.9-.1-3.9-.7-6.7-1.3-2.7-.5-6.3-1.2-8-1.4-1.6-.3-4.8-.7-7-1.1-2.2-.3-5.3-.8-7-1.1-1.6-.3-5.5-.9-8.5-1.4-3-.5-8-1.2-11-1.5-3-.4-6.6-.9-8-1.1-1.4-.2-5.2-.6-8.5-.9-3.3-.3-7.6-.7-9.5-.9-1.9-.3-7.1-.7-11.5-1.1-4.4-.3-10-.8-12.5-1.1-4.5-.5-64.7-1.3-65.2-.9z"/><path d="M513.6 201.8c-.2.1-6.5.5-14.2.8-7.6.3-15.2.7-16.9.8-1.6.2-3.6.4-4.3.5-.7.1-1 .6-.7 1.1.4.6 1 .8 1.4.6 1.8-1.1 19.3-1.8 51.3-1.9 19.2-.1 34.8-.5 34.8-1 0-.4-3.7-.7-8.2-.8-4.6 0-16.1-.1-25.6-.2-9.6-.1-17.5-.1-17.6.1zM566.6 202.8c-.3.5 1.2.9 3.2.9 7.3.1 25.6 1.4 26.4 1.9.4.3.8 0 .8-.5 0-.6-.3-1.1-.7-1.1-.5-.1-4.2-.3-8.3-.5-4.1-.2-10.5-.7-14.2-1-3.7-.3-6.9-.1-7.2.3zM467.5 205.1c-2.2.5-1.6.7 2.2.5 2.9-.1 5.5-.5 5.9-.9.9-.9-3.5-.6-8.1.4zM598.5 205.1c.3.4 1.2.6 2.1.5.9-.1 3.6.1 6 .4 2.4.4 4.4.3 4.4-.2 0-.4-1.7-.8-3.7-.9-2.1-.1-5-.2-6.5-.3-1.5-.2-2.5.1-2.3.5zM612.6 206.2c.3.4.9.8 1.5.8.5 0 .9-.4.9-.8 0-.5-.7-.9-1.5-.9s-1.2.4-.9.9zM616 206.4c0 .2 1.1.6 2.5.8 1.4.3 2.5.1 2.5-.3 0-.5-1.1-.9-2.5-.9s-2.5.2-2.5.4zM622.8 207.1c.4.4 2.6.9 4.9 1.1 2.3.2 3.9 0 3.5-.3-.4-.4-2.6-.9-4.9-1.1-2.3-.2-3.9 0-3.5.3zM633 208c0 .4 3 1.1 6.7 1.5 3.6.4 7.2.9 8 1.2.7.3 1.3.1 1.3-.4s-1.6-1-3.5-1.1c-1.9-.2-5.5-.6-8-1.1-2.5-.5-4.5-.5-4.5-.1zM685 208.2c0 .4 1.4.8 3 .8 1.7 0 3-.2 3-.4s-1.3-.6-3-.8c-1.6-.3-3-.1-3 .4z"/><path d="M580.6 210.8c-.3.5 0 .9.7.9 2.4.1 11.2 1.5 11.6 1.9.2.1-6.4.1-14.5-.2-18.5-.7-73.5-.6-82.9 0-3.8.3-11.5.8-17 1.1-5.5.4-11.6.8-13.5 1-1.9.2-6.5.7-10.1 1-3.6.3-7.5.7-8.7 1-1.1.2-4.5.6-7.4 1-9.9 1.1-21.5 2.6-24.3 3.1-1.1.3-3.6.7-5.5.9-5 .7-9.1 1.4-12 2-1.4.3-3.8.7-5.5 1-1.6.2-4.1.7-5.5 1-1.4.3-4.1.8-6 1.1-1.9.3-4.3.7-5.2 1-1 .3-3 .8-4.5 1-1.6.3-4.8 1-7.3 1.5-4.3 1-5.5 1.3-10.8 2.3-1.2.3-2.6.7-3.1 1-.5.3-2.6.8-4.7 1.1-2.2.3-4.6.9-5.4 1.2-.8.3-2.4.8-3.5 1-1 .2-4.9 1.3-8.5 2.4-3.6 1.1-7.5 2.3-8.7 2.5-1.2.2-6 1.8-10.5 3.5-4.6 1.7-8.7 3.2-9.3 3.3-.5.2-2.3.8-4 1.5-1.6.6-6.6 2.5-11 4.2-4.4 1.7-8.9 3.5-10 4-2.2.9-17.2 7-24.6 9.9-9.5 3.8-30.1 13.5-33.9 16-1.4.9-4.1 2.3-6 3-1.9.8-3.7 1.7-4 2-.3.4-2.5 1.6-5 2.9-5.2 2.5-31.6 18.6-35.4 21.6-1.5 1.1-2.9 1.8-3.3 1.7-.3-.2-.9 0-1.2.5-.3.5-4.6 3.7-9.5 7.2s-9.4 6.7-10 7.2c-.6.5-3.8 3-7.1 5.7-9.9 7.8-11.5 9.2-24 21.7-13.3 13.4-23.3 24.3-30.2 33.1-5.9 7.7-16.3 22.3-16.3 23 0 .3-1.5 2.9-3.4 5.7-3.3 5-9.2 16.3-13.4 25.7-2.7 6-10.3 28-9.6 28 .2 0 0 .8-.5 1.7-.5 1-1.1 3.1-1.4 4.8-.3 1.6-.8 4-1.1 5.1-.4 2-.8 4.1-2.1 12.6-2.2 13.7-2.2 41.1 0 51.8.2 1.3.7 4.2 1.1 6.5.3 2.2 1.2 6.7 2 10s1.7 6.8 1.9 7.7c.7 3.2 6.7 20.3 8.7 24.8 2.3 5.3 8.9 18.7 12.2 24.6 3 5.6 16.9 26.4 19.3 28.9 1 1.1 2.5 2.9 3.3 4.1 4.8 6.8 27.8 31 38 39.9 2.8 2.4 18.1 14.7 26 20.8.8.7 6.2 4.4 12 8.3 25 16.9 53.9 32.6 83.8 45.6 2.3 1 6.2 2.7 8.7 3.8 2.5 1.1 5.1 2 5.8 2 .8 0 1.7.3 2.1.7.3.4 2.1 1.2 3.9 1.9 6.5 2.4 32.2 11.5 33.2 11.7.6.2 1.6.6 2.3 1 .6.5 1.2.6 1.2.3s1.7.1 3.8.9c4.2 1.6 13.1 4.2 29.7 8.5 4.4 1.1 8.8 2.3 9.8 2.5 3.4.9 6.2 1.6 8.7 2.1 1.4.3 3.3.7 4.2 1 1 .3 2.9.7 4.2 1 1.3.2 6.8 1.3 12.2 2.5 5.5 1.1 10.8 2.2 11.9 2.3 1.1.2 3.4.6 5 .9 2.8.6 7.2 1.3 13.5 2.2 1.4.1 7.2 1 13 1.8 5.8.9 12.8 1.9 15.5 2.2 2.8.3 6.6.8 8.6 1.1 2 .3 6.3.7 9.5 1 7.2.5 8.5.7 10.3 1.8 1 .6 1.2.5.7-.2-.5-.9 0-.9 1.9-.2 7.7 2.9 93.5 3.2 116 .4 2.8-.4 4.8-.4 4.5-.1-2.6 2.7-65.8 4.6-103 3.1-8-.4-17.5-.7-21.2-.8-3.8 0-6.8-.4-6.8-.8s-.9-.5-2-.3-2.2-.1-2.6-.7c-.4-.6-1-.5-1.5.3-.7 1.1-.9 1.1-.9.1 0-.7-.5-1-1-.7-.6.4-1.7.2-2.5-.5-1-.8-1.5-.8-2 .1-.5.8-1 .8-1.4 0-.4-.5-3.5-1.3-7-1.6-3.4-.2-6.6-.7-6.9-.9-.4-.2-3.6-.7-7.1-1-3.6-.4-6.9-1-7.5-1.3-.7-.4-.8-.2-.1.5.6.6 2.1 1.3 3.5 1.5 3.1.7-7.3-.1-11.5-.9-1.6-.2-5.5-.9-8.5-1.4-3-.5-7.3-1.2-9.5-1.5-2.2-.3-5-.7-6.2-1-1.3-.3-3.3-.7-4.5-1-1.3-.3-3.6-.7-5.3-1-10.6-1.6-23.1-4-25.5-4.9-.8-.3-2.6-.8-4-1-1.4-.3-5.1-1.2-8.2-2-12.4-3.4-17.4-4.7-18.8-5.1-.8-.2-4.6-1.3-8.4-2.4-3.8-1.1-6.5-1.7-6-1.2.7.7 11.6 4.6 15.9 5.8.6.1 8.7 2.3 18 4.8 9.4 2.5 17.9 4.7 19 5 1.1.2 3.1.7 4.5 1 1.4.3 3.6.8 5 1 1.4.2 3.4.6 4.5.9 7 1.6 17.5 3.8 20.5 4.2 1.9.2 4.6.7 6 1 1.4.3 4.3.8 6.5 1 2.2.3 4.7.7 5.6 1 .9.2 4 .7 7 1 3 .2 6.5.7 7.9.9 1.4.2 4.5.6 7 1 2.5.3 5.9 1 7.5 1.5 2.8.8 5.6 1.2 19.5 2.5 6.6.6 28.1 1.8 29.5 1.6.6-.1 17.4-.3 37.5-.5 34.5-.4 42.1-.7 49.7-2.1 1.8-.3 7.2-.7 12-1 21.6-1.2 26-1.5 29.8-2 10.1-1.2 12.3-1.5 16.5-1.9 5-.5 10.7-1.3 16-2.3 6-1 8.1-.9 7.6.3-.3.9.3 1 2.5.4 1.6-.5 3.2-.9 3.4-.9.3 0 2.7-.3 5.3-.7 2.6-.4 5.2-.9 5.7-.9.6-.1 1.2-.3 1.5-.4.3-.2 1.7-.5 3.2-.7 1.4-.2 8.4-1.8 15.5-3.5 17.6-4.1 18.7-4.3 17.8-2.8-.5.8-.4 1 .4.5.6-.4.9-1.1.6-1.6-.3-.4 1.2-1.1 3.2-1.5 4.3-.8 22.9-6.2 34.5-10.1 4.3-1.4 8.3-2.2 8.9-1.8.8.5.9.3.4-.6-.6-1-.1-1.2 1.8-.8 1.5.3 2.4.2 2.2-.2-.3-.4 2.3-1.5 5.8-2.4 3.4-1 8.5-2.6 11.3-3.6 2.9-1 5.5-1.6 5.8-1.3.3.4.6.1.6-.6 0-.9.9-1.2 2.5-.9 1.3.3 2.2.1 1.9-.3-.3-.5.1-1 .8-1.1.7 0 1.8-.2 2.3-.2.6-.1 1.7-.6 2.5-1.1.8-.5 1.8-1 2.3-1.1.4-.1.9-.3 1.2-.4.3-.1.8-.3 1.3-.5 5-1.3 6.2-1.8 6.2-2.4 0-.4.6-.8 1.3-.8.6 0 3.2-1 5.6-2.1 2.5-1.2 5.1-2.2 5.9-2.2.8 0 1.2-.6.9-1.4-.4-1-.1-1.3.9-.9.8.3 2.9-.1 4.7-1 1.8-.9 4-1.8 5-2.1 1.1-.4 2.1-1.5 2.4-2.5.3-1.1 1.7-2.4 3.2-3 2.5-1 12.8-6.4 27.6-14.6 3.9-2.1 7.6-4.5 8.3-5.2.8-.7 1.7-1.1 2.2-.8.5.3 1 .2 1.2-.3.1-.4 3.9-3 8.3-5.7s8.2-5.3 8.3-5.7c.2-.4.8-.8 1.3-.8 1.1 0 7.2-4.2 7.7-5.3.2-.4.8-.7 1.4-.7.5 0 1.5-.6 2.2-1.3.7-.6 2.5-2.1 4.1-3.2 3.5-2.6 7-5.4 10.4-8.5 1.6-1.4 7.9-7 14.2-12.5 16.5-14.6 31.4-29.6 40.4-41 2.2-2.8 4.2-5.2 4.5-5.5 1.3-1.2 9-12.1 13.2-18.5 13.8-21.2 25.5-48.3 30.3-70 .2-1.1.6-2.9.8-4 .5-2 1.3-6.9 2.2-13.5.8-5.4 1.4-12.9 1.6-19.7.1-5.2.4-6.1 1.8-5.6 1.3.4 1.2.2-.2-1-1-.9-1.8-2.4-1.7-3.4.1-1 .2-2 .1-2.3-.1-.3-.4-3.9-.6-8-.8-11.8-6.1-37.6-9.5-45.5-3.4-8.1-4.1-10.8-2.8-11.6 1.4-.9 2.2.8 6.3 12.7 3.1 9.4 6.4 22.3 7 27.9.3 2.2.7 5.1 1 6.5.3 1.3.7 5.4 1 9 .4 4.4 1.1 6.9 2.3 7.8.9.7 1.6 1.5 1.5 1.7-.2.3-.2.7-.2 1 .1.3.3.9.4 1.5.1.5.3 1.4.4 1.9 0 .5.7 1.1 1.4 1.4 2 .7 1.7-2.3-.4-5.3-.9-1.4-2-4.6-2.4-7-2.7-19.2-8.2-43.5-11.5-51.5-2.5-6-4.3-11.2-4.6-13-.1-1.1-.3-2.1-.4-2.3-.3-.3-.7-2-.9-3.5 0-.7-.9-2.2-2-3.3-1.8-2-4.6-6.6-9.1-14.9-1.2-2.2-3.5-5.9-5.1-8.3-1.6-2.4-2.9-4.7-2.9-5.3 0-.5-.4-.9-.8-.9s-1.5-1.2-2.4-2.8c-1.8-2.9-5.3-7.5-7.8-10.1-.8-.9-3.3-3.8-5.5-6.6-10.7-13.1-32.4-34.8-45.5-45.3-3.6-2.9-7.4-6-8.5-7-6.4-5.6-32.7-23.1-43-28.7-3.8-2-7.2-4-7.5-4.4-.3-.3-2.5-1.6-5-2.9-2.5-1.2-6.4-3.3-8.7-4.7-2.4-1.4-4.3-2.1-4.3-1.7 0 .4-.4.2-.8-.4-.9-1.3-18.1-9.7-19.9-9.7-.7 0-1.3-.4-1.3-.9 0-.4-.4-.8-1-.8-.5 0-4-1.4-7.7-3.1-9-4.2-41.4-16.6-44.8-17.3-.5-.1-1.4-.4-2-.8-.5-.3-2.6-.9-4.5-1.4-4.9-1.1-3.9-.8-20-5.4-8-2.3-15.2-4.3-16-4.5-19.9-5.1-35.2-8.8-44.5-10.5-3.3-.6-7.3-1.5-9-2-1.6-.5-5.2-1.2-8-1.5-2.7-.3-5.9-.8-7-1-1.1-.3-3.1-.7-4.5-.9-1.4-.2-3.6-.7-5-1-1.4-.3-4.7-.8-7.5-1.2-2.7-.3-6.1-.8-7.5-1-1.4-.3-4.1-.6-6-.8-1.9-.3-5.1-.7-7-1-3.4-.5-9.9-1.2-19-2.2-2.5-.3-7.2-.7-10.5-.9-3.3-.2-9.6-.7-14-1-9.2-.8-21-1.3-30.7-1.4-3.8-.1-6.8-.5-6.8-.9 0-.9 13.9-.7 30.5.3 5.5.4 13.2.8 17 1 6.2.3 12.6.8 27 2 5.6.4 16.5 1.6 19.5 2 1.4.2 4.3.6 6.5 1 2.3.3 5.2.8 6.5 1 3.1.6 6.1 1.1 12 2 8.7 1.3 10.6 1.6 16.5 3 3.3.7 7.8 1.6 10 1.9 2.2.4 6.9 1.4 10.5 2.2 3.6.9 7.3 1.7 8.3 1.9 1 .2 2.6.6 3.5.9.9.3 2.8.7 4.2 1 4.2.8 6.5 1.4 18 4.6 4.1 1.2 8 2.3 8.5 2.4 21.5 5.4 78.7 26.7 95.6 35.6.9.5 7.8 4.1 15.4 8 15.4 8 17.8 9.3 18.5 10 .3.3 2.5 1.6 5 3 2.5 1.3 10.5 6.5 17.9 11.5 7.4 4.9 14.1 9.4 14.9 10 1.7 1.1 5.8 4.4 7.6 6 .6.6 2.9 2.4 5.1 4 2.2 1.7 4.2 3.2 4.5 3.5.3.3 4.1 3.4 8.5 7 16.3 13 32.8 30.1 45.4 46.9 10.2 13.7 15.1 20.8 15.1 21.9 0 .6.4 1.2.8 1.4.7.3 9.1 14.6 10.1 17.3.2.5 1.7 3.9 3.4 7.5 2.9 6.4 9.5 23.7 10.3 27.5 1 4.1 1.3 5 1.4 5 .3 0 1.2 4.2 3.3 14.5 1.8 8.4 2.9 16.7 3.1 22.1 0 2 .6 4.2 1.2 5 .6.8 1.5 2.4 1.8 3.7 1 3.1 3.1 3.9 10.6 3.7l6.5-.1-.1-7.5c-.1-15.1-3.5-37.6-7.8-51.4-.1-.6-.8-3-1.5-5.5-3.7-13.1-13.8-35.1-23.5-51.1-3.2-5.2-6.2-10.3-6.9-11.4-.7-1.1-1.4-2.2-1.7-2.5-.3-.3-2.1-2.8-4-5.5-4.2-6.1-4-5.8-13.3-17-10.6-12.8-27-29.1-41.7-41.5-3.6-3-6.7-5.8-7-6.1-.3-.3-2.7-2.2-5.3-4.2-2.6-2-5.4-4.2-6.2-4.9-.7-.7-4.6-3.6-8.7-6.5-22.9-16.1-53.3-33.2-81.8-46.1-11.2-5-34-13.6-34-12.7 0 .4-5.3-1.6-9.5-3.5-2.2-1-13.4-5-15-5.3-.5-.2-1.4-.5-2-.8-1-.6-6.8-2.2-7.3-2-.1.1-1.6-.6-3.2-1.4-1.6-.8-3.1-1.5-3.2-1.4-.2.1-3-.6-6.3-1.6s-6.4-1.9-7-2.1c-.8-.1-7-1.9-11-3-1.8-.6-10-2.6-12-3-1.1-.2-3.1-.8-4.5-1.3-2.3-.9-17.1-4.4-23-5.5-6.3-1.2-13.7-2.7-16-3.2-1.4-.3-3.5-.7-4.7-.9-1.2-.2-3.4-.6-5-.9-1.5-.4-4.6-.9-6.7-1.1-2.2-.3-5.1-.7-6.5-1-7.3-1.2-11.5-1.6-11.1-1.1.6.5 1.3.6 13 2.6 3.6.5 7.6 1.2 9 1.4 1.4.3 2.5.5 2.5.6 0 .1.9.3 2 .5 3.2.4 8.9 1.5 10.5 2 .8.2 3 .7 4.8 1 1.8.3 6.1 1.3 9.5 2.1 3.4.9 7.4 1.8 8.9 2.1 1.7.3 2.5 1 2.1 1.7-.4.6.2.4 1.2-.4 1.1-.9 1.6-1 1.1-.3-.4.8-.1 1.3.8 1.4 1.9.2 2.6.4 4.6 1.2.8.3 7.4 2.2 14.5 4.1 24.9 6.6 56.5 17 75 24.7 3.9 1.6 7.3 2.9 7.8 2.9.4 0 2.7 1.1 5.2 2.5 2.5 1.3 4.9 2.5 5.3 2.6 1.6.2 29.1 13.6 36.7 17.9 2.2 1.2 7.6 4.2 12 6.7 4.4 2.4 9.4 5.3 11 6.3 1.7 1.1 4.5 2.7 6.3 3.7 1.7.9 3.2 2 3.2 2.5 0 .4.5.8 1.1.8 1.1 0 16.4 10.4 22.3 15.2 1.2.9 5.7 4.5 10.1 7.9 4.4 3.5 8.2 6.6 8.5 6.9.3.3 3.7 3.2 7.5 6.5 13.7 11.6 35.6 34.4 42.5 44.4 1.4 1.9 3.3 4.5 4.3 5.6 3 3.2 15.3 22.5 14.4 22.5-.3 0-3.7-4.6-7.5-10.3-3.9-5.6-8.4-11.7-10.1-13.6-1.7-1.9-3.1-3.8-3.1-4.1 0-.4-1-1.8-2.2-3.2-1.3-1.4-4.8-5.4-7.8-8.9-8.9-10.4-29-29.8-40-38.4-5.5-4.4-10.7-8.5-11.3-9.1-2.5-2.2-22.7-16.6-26.5-18.9-.9-.6-4.9-3.1-8.9-5.8-4-2.6-7.4-4.7-7.6-4.7-.3 0-4.2-2.1-8.8-4.6-15.2-8.5-52.2-26.4-54.5-26.4-.3 0-2.6-1-5.2-2.1-6.7-3.1-32.9-12.8-37.7-14-6.4-1.6-7-1.7-7.2-1.9-.2-.2-.6-.3-1-.4-4.6-1.2-10.3-2.9-12.3-3.6-1.4-.5-5.6-1.8-9.5-2.9-3.8-1.1-10.1-3-14-4.2-3.8-1.1-8.1-2.3-9.5-2.5-1.4-.3-3.7-.9-5.2-1.5s-3.2-.8-3.7-.4c-.6.3-1.1.2-1.1-.3s-.6-.9-1.2-.9c-.7-.1-4.4-.8-8.3-1.7-13.6-3.1-33.6-6.8-43.4-8.2-3.4-.4-6.5-1-10.6-1.8-1.1-.2-4.9-.7-8.5-1-3.6-.4-7.7-.9-9-1.2-4.5-.9-12.3-1.4-30.8-1.9-10.1-.2-18.7-.7-19.2-1-.5-.3-1.1-.2-1.4.3zm-73.2 10c.2.4-.7.8-2 .8-1.3.1-2.4-.1-2.4-.5 0-.9 3.8-1.2 4.4-.3zm16 .2c-.8.7-14.4.7-14.4 0 0-.3 3.3-.6 7.4-.6 4.1 0 7.3.3 7 .6zm9.6 0c0 .3-1.8.6-4 .6-2.2-.1-4-.4-4-.8 0-.5 1.8-.7 4-.6 2.2.1 4 .4 4 .8zm9 0c0 .8-6.6.7-7.4-.1-.4-.3 1.2-.6 3.4-.6s4 .3 4 .7zm-53 .4c0 .2-.7.7-1.6 1-.8.3-1.2.2-.9-.4.6-1 2.5-1.4 2.5-.6zm11.3.3c-1.3.2-3.5.2-5 0-1.6-.2-.5-.4 2.2-.4 2.8 0 4 .2 2.8.4zm-18.6.9c-.3.3-1.2.4-1.9.1-.8-.3-.5-.6.6-.6 1.1-.1 1.7.2 1.3.5zm379.7 80.3c-.2.3-1.2-.3-2.2-1.3-1.6-1.7-1.6-1.8.5-.5 1.2.7 2 1.5 1.7 1.8zm4.1 1.1c.3.6-.1.7-.9.4-1.8-.7-2.1-1.4-.7-1.4.6 0 1.3.4 1.6 1zm3 2c.3.5.1 1-.4 1-.6 0-1.1-.5-1.1-1 0-.6.2-1 .4-1 .3 0 .8.4 1.1 1zm9.1 6.1c.3.5-1.1 0-3-1.2-2-1.2-3.9-2.5-4.2-3-.3-.5 1.1 0 3 1.2 2 1.2 3.9 2.5 4.2 3zm3.4 1.9c0 .5-.2 1-.4 1-.3 0-.8-.5-1.1-1-.3-.6-.1-1 .4-1 .6 0 1.1.4 1.1 1zm3.5 2.8c-.3.3-1.1 0-1.8-.7-.9-1-.8-1.1.6-.5 1 .3 1.5.9 1.2 1.2zm5.5 3.4c0 1.2-.6.9-2.6-1.3-1.9-2.2-1.9-2.2.4-.8 1.2.8 2.2 1.7 2.2 2.1zm6 3.9l3.5 3-4-2.7c-2.2-1.6-4.2-2.9-4.4-3.1-.2-.2 0-.3.5-.3s2.5 1.4 4.4 3.1zm8.6 6c.3.6-.5.3-2-.6-1.4-1-2.6-1.9-2.6-2.2 0-.7 3.9 1.7 4.6 2.8zm5.1 3.5c-.3.3-1.2.4-1.9.1-.8-.3-.5-.6.6-.6 1.1-.1 1.7.2 1.3.5zm67.9 68.8c1.6 2.5 3.1 4.1 3.4 3.5.7-1.1 8.8 11 14.9 22.2 3 5.6 3.8 7.8 2.8 8.2-.8.3-2.2-1.3-3.7-4.2-3.9-7.3-9.2-16.4-10.8-18.3-.8-.9-1.1-2.2-.6-2.9.4-.7.3-1-.3-.6s-2.2-1-3.5-3.1c-5.4-8.1-6-9.2-5.5-9.2.3 0 1.8 2 3.3 4.4zm26.5 45.6c-.4 2.1-.7 1.8-2.9-2.7-1.6-3.2-2.2-5.7-1.8-6.9.6-1.6 1.1-1.1 2.9 2.6 1.2 2.5 2 5.6 1.8 7zM822.6 768.5c-1.1.8-2.5 1.5-3 1.5-.6-.1 0-.7 1.4-1.5 3.2-1.9 4-1.8 1.6 0zM227.4 275.6c-1.8 1.4-1.8 1.5.4.4 1.2-.6 2.2-1.3 2.2-1.5 0-.8-.5-.6-2.6 1.1zM222 278c-.8.5-1 1-.5 1 .6 0 1.7-.5 2.5-1s1.1-1 .5-1c-.5 0-1.7.5-2.5 1zM218 280c-.9.6-1 1-.3 1 .6 0 1.5-.5 1.8-1 .8-1.2.4-1.2-1.5 0zM213.5 282c-.3.5-.1 1 .4 1 .6 0 1.1-.5 1.1-1 0-.6-.2-1-.4-1-.3 0-.8.4-1.1 1zM205.5 286c-.3.5-.1 1 .4 1 .6 0 1.1-.5 1.1-1 0-.6-.2-1-.4-1-.3 0-.8.4-1.1 1zM176.5 295c-.3.6.1.7.9.4 1.8-.7 2.1-1.4.7-1.4-.6 0-1.3.4-1.6 1zM171.4 298.2l-1.9 2.3 2.5-2c1.4-1.1 2.7-2.1 2.9-2.2.2-.2 0-.3-.6-.3-.5 0-1.8 1-2.9 2.2zM165.9 301.7c-1.3 1.7-1.3 1.7.6.3 1.1-.8 2.2-1.6 2.4-1.7.2-.2 0-.3-.6-.3s-1.7.8-2.4 1.7zM155.3 308.6l-2.8 2.6 3.3-2.2c2.9-2 3.9-3 2.8-3-.3 0-1.8 1.2-3.3 2.6zM146.6 314.5c-1.1.8-1.7 1.7-1.4 2 .2.3 1.3-.4 2.3-1.5 2.1-2.3 1.8-2.5-.9-.5zM142 318c-.8.5-1.2 1.2-.9 1.5.4.3 1.2-.1 1.9-1 1.4-1.7 1.1-1.9-1-.5zM138 321c-.8.5-1.2 1.2-.9 1.5.4.3 1.2-.1 1.9-1 1.4-1.7 1.1-1.9-1-.5zM133.9 324.3c-5.7 4.4-7.2 5.8-6.8 6.1.2.2 2.4-1.4 4.9-3.5 4.2-3.6 5.5-5.4 1.9-2.6zM139 329.1c-2.2 1.8-2.2 1.9-.3 1 1.2-.6 2.5-1.6 2.8-2.1.9-1.5.3-1.2-2.5 1.1zM124 332c-.9.6-1 1-.3 1 .6 0 1.5-.5 1.8-1 .8-1.2.4-1.2-1.5 0zM118.4 337.2l-2.9 3.3 3.5-3c1.9-1.7 3.7-3.1 3.9-3.3.2-.1 0-.2-.5-.2-.6 0-2.3 1.5-4 3.2zM130.9 335.7c-1.3 1.6-1.2 1.7.4.4 1.6-1.3 2.1-2.1 1.3-2.1-.2 0-1 .8-1.7 1.7zM113.5 341.1c-.4.6-.5 1.2-.2 1.5.2.3.7-.2 1-1.1.7-1.7.1-2-.8-.4zM121 343.7c-3 2.3-14.7 13.5-13.1 12.5.4-.2 3.3-2.8 6.6-5.7 3.3-2.9 7.1-6.2 8.5-7.4 3.7-3 2.1-2.5-2 .6zM108.6 345.5c-1.1.8-1.5 1.5-.9 1.5s1.6-.7 2.3-1.5c1.6-1.9 1.1-1.9-1.4 0zM98 355.5c-.7.9-.8 1.5-.2 1.5.5 0 1.2-.7 1.6-1.5.3-.8.4-1.5.2-1.5s-.9.7-1.6 1.5zM66.5 360c-.3.6.1.7.9.4 1.8-.7 2.1-1.4.7-1.4-.6 0-1.3.4-1.6 1zM91.2 362.7c-1.3 1.4-2.2 2.7-1.9 2.9.2.2 1.6-1 3.2-2.6 1.6-1.7 2.5-3 1.9-2.9-.5.1-1.9 1.2-3.2 2.6zM59.3 368.8c-2.1 2.7-4.9 6.4-6.3 8.2-1.4 1.9-4.2 5.5-6.2 8.2-2.1 2.6-3.8 4.9-3.8 5.2 0 .2-2.2 3.8-4.9 7.9-7.8 11.8-16.5 29.8-23.7 49.2-1.1 3.2-1.2 3.3-4.9 18-2 7.7-3.8 15.8-4 18-.8 6.9-1.4 11.9-1.9 14.2-.3 1.3-.1 2.3.3 2.3.8 0 1.4-3.5 2.7-14.5.2-1.7.6-4.1.9-5.5.4-1.4.8-3.4 1-4.5.1-1.1 1.1-4.9 2-8.5.9-3.6 1.9-7.9 2.2-9.5.3-1.7.8-3.5 1.2-4 .7-.9 3.4-9.1 3.5-10.7.1-.3.4-1 .9-1.4.4-.4.7-1.4.7-2.2 0-1.6 15.3-33.2 18-37.1.9-1.4 3.5-5.3 5.6-8.6 2.1-3.3 4.1-6.2 4.6-6.3.4-.2.8-1 .8-1.8s.3-1.4.8-1.4c.4-.1 2.3-2.4 4.2-5.1 1.9-2.8 5.2-7.3 7.3-10 2.1-2.7 3.6-4.9 3.4-4.9-.3 0-2.3 2.2-4.4 4.8zM84.5 370.6c-1.6 1.9-3.7 4.2-4.5 5.1-.8.9-1 1.4-.4 1.2 1.5-.6 9.8-9.9 8.8-9.9-.5.1-2.2 1.7-3.9 3.6z"/><path d="M74 383c-2.4 2.8-4.1 5.2-3.9 5.4.2.2 2.3-2.1 4.7-5 5.4-6.8 4.8-7.1-.8-.4zM64.2 396.4c-6.5 9.1-12.2 18.4-15.6 25.1-1.6 3.3-3.3 6.1-3.8 6.3-.4.2-.8.9-.8 1.5 0 1.9 2.5-1.4 6-7.8 5.7-10.5 11.3-19.9 15.4-25.3 2.1-2.9 3.7-5.4 3.5-5.6-.2-.2-2.3 2.4-4.7 5.8zM33.1 423.8c-1.7 3.1-1.3 4 .5 1.4.9-1.3 1.4-2.6 1.1-2.9-.3-.2-1 .4-1.6 1.5zM41 436.4c-.5 1.4-1.4 3.7-2 5.1-.5 1.4-.7 2.5-.4 2.5.8 0 4.5-9.2 4-9.8-.3-.3-1 .7-1.6 2.2zM36.1 448c-.5 1.6-.8 3-.6 3 .2 0 1-1.4 1.9-3 .8-1.7 1.1-3 .6-3-.4 0-1.3 1.3-1.9 3zM34 453.5c0 .8.2 1.5.4 1.5s.6-.7 1-1.5c.3-.8.1-1.5-.4-1.5-.6 0-1 .7-1 1.5zM32.7 457.7c-.2 1-.8 2.6-1.2 3.5-.4 1.1-.3 1.8.4 1.8.6 0 1-.3.9-.8-.1-.4.2-1.7.6-3 .4-1.3.6-2.6.3-2.8-.2-.3-.7.3-1 1.3zM30.7 464.7c-.9 1.7-2.9 10.4-2.5 10.8.2.2 1.1-2.3 2-5.5 1.4-5.4 1.6-7.3.5-5.3zM26.8 479.3c-.3 1.9-.2 2.5.4 1.9.6-.6.8-1.8.6-2.8-.3-1.4-.5-1.2-1 .9zM25.5 486.2c-.3 1.8-.7 4.6-1 6.3-.3 1.6-.8 5.7-1.1 9-.3 3.3-.8 6.3-1.1 6.7-.2.5.1.8.6.8.6 0 1.2-1.2 1.2-2.8.2-2.8.2-3.4 1.3-11.7.4-2.8.9-5.9 1-7.1.2-1.1.6-2.6 1-3.2.4-.7.3-1.2-.3-1.2s-1.3 1.5-1.6 3.2zM2.8 505c-.2 2.2-.1 4 .3 4 .9 0 1.7-7 .8-7.6-.4-.2-.9 1.4-1.1 3.6zM2.5 518.5c0 5-.4 8.5-1 8.5-.5 0-.4.4.4.9s1.1 1.6.8 2.6c-.4.9-1.2 1.3-1.8.9-.8-.4-.9-.3-.5.5.4.6 1.1.9 1.6.6.4-.3 1 0 1.2.6.2.6.4-4.3.4-11S3.4 510 3 510c-.3 0-.5 3.8-.5 8.5zM22.9 510.2c-.5 1.1-.5 18.9 0 19.2.3.2.7-4 .7-9.5.1-8.3-.1-11.1-.7-9.7zM1023 527.7c0 1.3 3.9 3.8 4.7 2.9.9-.8-.8-2.7-1.9-2-.6.4-1.4 0-1.9-.7-.6-1-.9-1-.9-.2zM22.3 531.7c.3.5.8 4.2 1.1 8.3.4 4.1.8 8.4 1 9.5.3 1.1.5 3.2.5 4.7.1 1.6.6 2.8 1.2 2.8.5 0 .8-.4.5-.8-.4-.7-1.2-6.2-2.2-16.2-.1-1.4-.2-4-.3-5.8-.1-1.7-.6-3.2-1.2-3.2-.5 0-.8.3-.6.7zM1026 534c-1.2.8-1.2 1-.1 1 1.1 0 1.1.3 0 1.7-1 1.1-1 1.4-.1.9.9-.5 1.2.3 1.2 3.1 0 2.8-.3 3.4-1 2.3-.8-1.3-1-1.2-1 .2 0 1 .6 1.8 1.3 1.8.8 0 .9.2.1.8-.6.4-1 1.9-.8 3.5.1 1.5 0 2.5-.4 2.3-.4-.2-.8 2.1-.8 5.2-.1 5.7-.6 8.4-2.6 15.7-.6 2.2-1.3 4.6-1.4 5.4-.7 3.5-3.8 11.9-6.9 18.6-1.9 4.1-3.5 7.7-3.5 8 0 1.6-15.8 32.2-17.7 34.2-.6.7-1.5 2.2-1.8 3.3-.3 1.1-1.1 2-1.6 2s-.8.3-.7.7c.3.9-13.8 20.9-15.3 21.9-.5.3-.9 1-.9 1.6 0 .6 1.4-.7 3-2.8 1.7-2.2 3.7-4.7 4.5-5.6.7-.9 2.2-2.9 3.2-4.5.9-1.5 2-3 2.4-3.3.3-.3 2.6-3.4 5-7s5.2-7.3 6.3-8.3c1-.9 1.5-1.7 1.1-1.7-.5 0 0-1 1.1-2.3 2.6-3 8-13.2 12.9-24.2 4.2-9.6 7.6-19.1 8.1-22.6.3-1.9.9-4.5 1.4-5.9 1.3-3.3 4.9-18.8 5.4-22.9.2-1.8-.1-3.1-.8-3.1-.8 0-.8-.2 0-.8 2-1.2 3.8-18.2 2-18.2-.6 0-.4-.5.4-1s1.1-1 .5-1c-.5 0-1.7.5-2.5 1zM1.1 536.2c-.1 2 .4 2.8 1.7 2.8 1.6.1 1.6.2.1 1.3-1.3 1-1.5 2.1-.8 5.2l.8 4-.2-3.8c-.1-2.4.4-4.2 1.3-4.8 1.3-.8 1.3-1.1-.1-2.2-.9-.7-1.9-2.1-2.2-3.2-.3-1.5-.5-1.3-.6.7zM1038.1 535.6c0 1.1.3 1.4.6.6.3-.7.2-1.6-.1-1.9-.3-.4-.6.2-.5 1.3zM1037.7 539.9c-.4 1.7-.3 2.1.5 1.3.5-.5.8-1.6.6-2.3-.3-.8-.7-.3-1.1 1zM1037.1 547.6c0 1.1.3 1.4.6.6.3-.7.2-1.6-.1-1.9-.3-.4-.6.2-.5 1.3zM2.6 550.8c-.2.4-.1 1.4.4 2.2.7 1.1.9.9.7-.8-.1-2.4-.3-2.6-1.1-1.4zM1036.9 550.2c-.5 1.8-.6 3.8-.1 3.4.7-.8 1.2-3.6.6-3.6-.2 0-.4.1-.5.2zM1035.5 559c-.3.5-.1 1 .4 1 .6 0 1.1-.5 1.1-1 0-.6-.2-1-.4-1-.3 0-.8.4-1.1 1zM16.4 563.5c.4 1.1 1 3.9 1.3 6.2.3 2.4.9 4.6 1.4 4.8.4.3.6-.1.5-.7-.2-.7-.6-3.4-1.1-6.1-.4-2.6-1.2-5-1.8-5.4-.7-.4-.8 0-.3 1.2zM1034.6 565.2c-1.1 3.5-1.3 5.8-.6 5.3.4-.3 1-1.8 1.2-3.5.5-3 .1-4.1-.6-1.8zM1033.1 572.7c-.1.6-.4 2-.7 3-.5 1.7-.5 1.7.6 0 .6-1 .9-2.3.6-3-.3-.9-.5-.9-.5 0zM9.5 574c.3.5.8 1 1.1 1 .2 0 .4-.5.4-1 0-.6-.5-1-1.1-1-.5 0-.7.4-.4 1zM20.6 579.8c.7 2 1.3 4.3 1.4 4.9 0 .7 2.1 6.6 4.7 13 2.5 6.5 4.6 12.3 4.6 13 0 .7.4 1 .7.8.4-.3 1.5 1.7 2.5 4.3 1 2.6 2.1 4.9 2.5 5.2.4.3 2 3 3.6 6 3 5.7 6.6 11.6 8.4 13.7.6.7 2.1 2.9 3.5 5s3.1 4.6 3.8 5.7c.6 1 2.4 3.2 3.9 5 1.5 1.7 2.8 3.4 2.8 3.8 0 .5.5.8 1.2.8.6 0 .2-1-.9-2.3-1.2-1.2-4.9-6.5-8.4-11.7-3.4-5.2-6.5-9.7-6.9-10-.3-.3-1.4-2.1-2.3-4-1-1.9-3.1-5.8-4.7-8.5-3.9-6.4-10.5-20.1-13.7-28.5-1.4-3.6-2.9-7.4-3.4-8.5-.4-1.1-1.3-3.9-1.9-6.2-.6-2.3-1.4-4.5-1.9-4.7-.5-.3-.3 1.1.5 3.2zM1031.3 579.5c-.3.9-.3 1.8-.1 2.1.3.3.8-.4 1.1-1.6.6-2.3-.1-2.7-1-.5zM11 579.5c0 .5.5 1.7 1 2.5s1 1 1 .5c0-.6-.5-1.7-1-2.5s-1-1.1-1-.5zM1028.3 589.6c-1.1 3.8-3.2 9.8-4.6 13.4-3.7 9.8-4 10.8-1.9 7 2.4-4.3 9.4-24.9 8.9-26.3-.1-.5-1.2 2.1-2.4 5.9zM13.6 588.3c.3 1 .9 1.5 1.2 1.2.3-.3 0-1.1-.7-1.8-1-.9-1.1-.8-.5.6zM1018.5 615.1c-.4.6-.5 1.2-.2 1.5.2.3.7-.2 1-1.1.7-1.7.1-2-.8-.4zM1016.3 619.5c-.3.9-.3 1.8-.1 2.1.3.3.8-.4 1.1-1.6.6-2.3-.1-2.7-1-.5zM23.1 620.7c.7 1.2 1.5 2 1.8 1.7.3-.2-.3-1.2-1.3-2.2-1.7-1.6-1.8-1.6-.5.5zM1014.5 624.1c-.4.6-.5 1.2-.2 1.5.2.3.7-.2 1-1.1.7-1.7.1-2-.8-.4zM1012.5 628.1c-.4.6-.5 1.2-.2 1.5.2.3.7-.2 1-1.1.7-1.7.1-2-.8-.4zM1005.6 640.7c-.6 1.4-.5 1.5.5.6.7-.7 1-1.5.7-1.8-.3-.3-.9.2-1.2 1.2zM65 662.2c0 .7 5.1 7 12.3 15.2 2.9 3.2 7 7.9 9.2 10.4 7.9 9 17.3 17.6 31.8 29.2 1.1.8 2.5 2.1 3.2 2.7.8.7 1.6 1.3 1.9 1.3 1.4 0 4.4 3.4 3.9 4.3-.3.6-.2.7.4.4.5-.3 2.2.5 3.8 1.9 1.5 1.3 3.2 2.4 3.7 2.4s.6.4.3 1 .1.7.9.4c.9-.3 1.6-.1 1.6.5s.5 1.1 1.2 1.1c.6 0 4.7 2.2 9 5 4.3 2.7 8.1 5 8.3 5 .3 0 3.1 1.8 6.3 3.9 3.1 2.2 7.1 4.5 8.7 5.2 1.7.8 3.2 1.6 3.5 1.9.3.4 4.6 2.8 9.5 5.4 5 2.7 8.6 4.4 8 3.8-.9-.9-8.3-5.2-19.6-11.4-1.7-.9-5.9-3.5-9.4-5.7-3.5-2.3-6.6-4.1-7-4.1-.3 0-2.1-1.1-3.9-2.5-1.8-1.4-3.8-2.5-4.4-2.5-.6 0-1.2-.4-1.4-.8-.1-.4-3.2-2.8-6.8-5.2-3.6-2.5-6.7-4.7-7-5-.3-.3-3.4-2.7-7-5.5-3.6-2.7-7.4-5.7-8.5-6.7-1.1-1-3-2.6-4.2-3.5-8.8-7.2-12.1-10.1-22.3-20.3-9.6-9.5-15.4-15.8-25.2-27.5-.4-.5-.8-.6-.8-.3zM59.1 670.7c.7 1.2 1.5 2 1.8 1.7.3-.2-.3-1.2-1.3-2.2-1.7-1.6-1.8-1.6-.5.5zM968.6 671.8l-1.9 2.7 2.4-2.2c1.2-1.2 2.1-2.4 1.8-2.7-.2-.2-1.3.8-2.3 2.2zM984.4 673.3c-1.6 1.8-4.7 5.5-6.8 8.2-8.1 10.3-35.9 36.8-49.1 47-1.4 1.1-4 3.2-5.8 4.6-1.8 1.4-5.4 4.1-8.2 5.9-2.7 1.9-5.2 3.6-5.5 4-1 1.2-23 15-24 15-.5 0-1 .4-1 .9s-1.2 1.4-2.7 2c-1.6.6-4.8 2.5-7.3 4.1-2.5 1.6-5.4 3.4-6.5 3.9-1.1.5-8.3 4.3-16 8.6-13 7.1-29.9 15.6-40.5 20.3-9 4-36.4 14.5-38.2 14.7-.3 0-1 .3-1.4.7-.4.5-1.3.8-2 .8s-2.5.5-4.1 1.2c-2.9 1.1-3.3 1.3-6.8 2.2-1.1.3-6.7 2.2-12.5 4.1-5.8 2-11.3 3.4-12.3 3.1-.9-.2-1.5-.1-1.2.4.4.7-1.8 1.6-6 2.5-.5.2-5 1.3-9.8 2.5-4.8 1.2-9.1 2-9.4 1.6-.4-.3.2-.6 1.3-.6 1-.1 3.3-.7 4.9-1.5 2.2-1.1 2.4-1.3.6-.9-2.6.7-3.3.8-7.8 1.9-1.8.4-3.3 1.4-3.3 2.1 0 .8-1 1.4-2.2 1.3-2.2 0-2.2-.1-.3-.9 3.7-1.6 2.8-1.4-21 3.6-1.1.2-3.3.7-5 1-1.6.3-4.8.9-7 1.5-2.2.5-5.1 1.2-6.4 1.5-1.4.3-2.8.7-3.2 1-.8.5-9.7 2.3-14.4 2.9-1.6.3-4.8.7-7 1-2.2.3-5.1.7-6.5 1-3.1.6-8.5 1.5-12.5 1.9-6.1.8-13.1 1.6-16.5 2.1-1.9.3-5.7.7-8.5 1-2.7.2-7.7.7-11 1.1-3.3.4-7 .7-8.2.8-1.2.1-2.5.4-2.8.8-.3.3 1.8.5 4.7.3 11.1-.6 24.9-1.6 26.7-2 1.1-.2 5.1-.6 8.8-1 7.1-.6 8-.7 20.8-2.4 4.4-.6 9.6-1.3 11.5-1.5 5.5-.8 11.1-1.6 17-2.7 3-.6 6.9-1.2 8.5-1.4 1.7-.3 5.3-.9 8-1.5 2.8-.5 6.4-1.2 8-1.5 1.7-.2 4.5-.9 6.3-1.4 1.8-.5 3.5-1 3.7-1 .3 0 1.8-.2 3.3-.5 1.5-.4 3.7-.9 5-1.1 1.2-.3 3.1-.7 4.2-1 1.1-.3 2.9-.7 4.1-1 1.1-.2 2.8-.6 3.7-.9.9-.3 3.1-.8 4.7-1.1 3.8-.8 6-1.3 6-1.5 0-.1.7-.3 1.5-.5 4.1-1 6.1-1.6 14-3.9 4.7-1.3 12.3-3.6 17-5.1 4.7-1.4 9-2.8 9.5-2.9.6-.2 1.7-.6 2.5-.9 1.3-.6 11.9-4.3 14.5-5.1.6-.2 1.9-.7 3-1.1 1.1-.4 4.9-1.9 8.5-3.2 10.6-4 21.1-8.3 27.8-11.4 3.5-1.6 6.5-2.9 6.7-2.9.9 0 26-12.4 26.5-13 .3-.4 1.6-1.1 3-1.5 1.4-.4 3.6-1.5 5-2.5s3.5-2 4.7-2.4c1.2-.4 3.2-2.3 4.3-4.2 1.2-1.9 2.6-3.2 3.1-2.8.5.3-.1 1.4-1.3 2.5l-2.3 1.9 2.7-1.1c2.2-1 2.7-1.7 2.3-3.7-.3-1.9.2-2.6 2.5-3.5 1.7-.6 3-1.5 3-1.9 0-.4.7-.8 1.5-.8s1.5-.5 1.5-1c0-.6.8-1.4 1.8-1.7.9-.4 6.4-3.9 12.1-7.7 5.7-3.9 11.1-7.6 12-8.1 3.1-1.9 9.6-7 9.9-7.7.2-.5 1-.8 1.7-.8s1.5-.3 1.7-.8c.6-1.5 8.9-7.4 9.5-6.8.4.3-.1 1.2-.9 1.9-2.8 2.1-10 8.1-12.7 10.5-1.4 1.3-.1.6 2.9-1.5 6.6-4.5 8.7-6.3 15.4-12.6 2.8-2.6 5.3-4.7 5.6-4.7.3 0 1.1-1 1.9-2.3 1.3-2.1 1.2-2.1-1.5.3-1.6 1.3-4.4 3.8-6.1 5.4-1.8 1.6-3.6 2.7-3.9 2.3-.7-.7.6-2.1 5.6-5.8 1.9-1.5 9-8.2 15.7-15 12.5-12.7 14.7-15.1 21.1-22.9 2-2.5 4.5-5.4 5.5-6.5 2-2.1 4-5.5 3.4-5.5-.2 0-1.7 1.5-3.3 3.3zM697.7 834.6c-.3.3-1.2.4-1.9.1-.8-.3-.5-.6.6-.6 1.1-.1 1.7.2 1.3.5z"/><path d="M950.5 691.4c-3.3 3.4-8.2 7.9-10.9 10.1-2.6 2.2-5.8 4.8-7 5.9-6.2 5.5-20.6 16.6-21.5 16.6-.5 0-1.1.4-1.3 1-.1.5-4.8 4-10.3 7.9-5.5 3.8-10.8 7.7-11.7 8.5-1 .9-1.8 1.3-1.8.8 0-.4-.4-.2-.8.4-.4.5-2.4 2-4.5 3.3-2.1 1.3-4.3 2.8-5 3.4-1.7 1.7-9.5 6.7-10.4 6.7-.5.1-2.4 1.4-4.3 3-1.9 1.7-4 3-4.7 3-.7 0-1.3.4-1.3.8 0 .5-1.6 1.4-3.5 2.2-1.9.8-3.5 1.6-3.5 2 0 .3-3.3 2.1-7.2 4-4 1.9-7.4 3.8-7.6 4.2-.2.5-.8.8-1.3.8s-4.3 1.6-8.5 3.5c-4.1 1.9-7.9 3.5-8.3 3.5-.4 0-2.9 1.1-5.7 2.4-2.7 1.3-6.7 2.9-8.9 3.7-2.2.8-4.3 1.8-4.7 2.4-.4.5-.8.7-.8.2 0-.4-1.9.2-4.2 1.4-2.4 1.2-4.4 2.1-4.5 2.1-.2-.1-1.7.5-3.5 1.2-1.8.8-4.8 1.7-6.5 2.1-1.8.3-3.3 1-3.3 1.4 0 .4-.6.8-1.2.8-.7.1-5 1.4-9.6 3.1-4.6 1.7-9.2 2.9-10.3 2.7-1.2-.2-1.7 0-1.3.7.4.7-.1.8-1.6.3-1.7-.5-2.1-.4-1.5.6.6 1.1.5 1.1-.4.3-1.6-1.5-10.4 1.3-9.4 3 .4.7.1.6-.8-.1-1.3-1-1.9-1-3.4.1-1.1.8-2.6 1.1-3.4.8-.9-.3-1.2-.1-.8.5.5.7 0 .9-1.3.6-1.1-.3-2 0-2 .6 0 .5-.6.8-1.4.5-.8-.3-2.4-.1-3.5.6-1.6.8-2.1.8-2.1-.2 0-.9-.3-.9-1 .2-.5.8-1 1.1-1 .5 0-.5-.5-.4-1.2.3-1.5 1.5-3.2 1.6-2.2.1.3-.6-.5-.3-2 .6-1.4 1-2.6 1.5-2.6 1.1 0-.3-1.2-.1-2.7.5-2.8 1.1-4.1 1.4-8.5 2.4-1.3.2-4.3.9-6.8 1.5-2.5.5-5.6 1.2-7 1.4-1.4.3-6.8 1.4-12 2.4-5.2 1.1-11.3 2.3-13.5 2.6-2.3.4-5.2.9-6.5 1.1-1.4.3-4.1.8-6 1.1-1.9.3-4.2.7-5 .9-.8.2-3.7.7-6.5 1.1-2.7.3-5.8.8-6.8 1-1 .2-4.8.6-8.5 1-3.7.3-8.5.8-10.7 1-5.7.6-17.1 1.3-31 1.9-6.6.3-15.8.8-20.5 1.1-4.7.3-12.2.7-16.7.8-4.6 0-8.3.3-8.3.6s-11.1.5-24.6.4c-20.2 0-24.7-.3-25.5-1.5-.6-1-.9-1-.9-.2 0 1-2.8 1.2-11.7.8-20.3-.9-29.7-1.5-32.8-2-1.6-.2-5-.7-7.5-1-13-1.4-16-1.8-28-3.6-4.1-.6-8.8-1.2-10.5-1.4-1.6-.2-5.5-.8-8.5-1.4-3-.6-6.7-1.2-8.3-1.5-1.5-.3-3.7-.7-5-1.1-1.7-.5-1.9-.4-.6.4.9.6 3 1.3 4.7 1.6 1.8.3 6.5 1.2 10.5 2.1 3.9.8 8.7 1.7 10.6 1.9 1.8.2 3.7.7 4 1.1.7.8-11.7-.2-14.2-1.1-1.1-.5-1.7-.2-1.7.6 0 .7.2 1 .6.7.3-.3 2.2-.2 4.2.3s5.7 1.1 8.2 1.4c2.5.3 5.5.8 6.7 1 1.2.3 4.6.8 7.5 1.1 2.9.3 5.6.8 5.9 1 .4.2 2.8.6 5.5.9 2.7.3 6.2.8 7.9 1.1 1.6.3 5.2.7 8 1 2.7.3 6.4.7 8 .9 1.7.2 7.1.7 12 1 5 .4 10.1.8 11.5 1.1 3.3.5 39.3 1.7 54.7 1.8 6.8.1 12.3.4 12.3.8 0 .9-1.1 1-14.7 1-6.3 0-10.3.4-10.3 1 0 1.4 41.5.3 66-1.7 6.2-.5 8.5-.8 16.8-2 2-.3 6.6-.7 10.2-1 17.5-1.4 19.4-1.6 27-3 1.4-.2 4.3-.7 6.5-1 2.3-.3 5.2-.8 6.5-1 1.4-.3 3.6-.7 5-1 1.4-.3 3.6-.7 5-1 1.4-.4 3.9-.8 5.5-1.1 1.7-.3 4.8-1.1 7-1.9 3.6-1.1 10.5-2.7 17.5-3.9 1.4-.3 2.5-.5 2.5-.6 0-.2 3.8-1.1 5.3-1.2 1.3-.1 1.6-1.4.5-2.1-.5-.2-.3-.2.4-.1.6.2 1.4-.4 1.7-1.3.4-.9.9-1.3 1.2-1 .3.3 0 1.6-.7 2.9-1.1 2-1 2.1.3 1.1.8-.7 1.8-1 2.1-.6.4.3.7.2.7-.4 0-.5 1.3-.9 3-.8 1.6.1 2.7-.2 2.3-.7-.3-.5.5-.8 1.8-.6 1.8.2 2.4-.2 2.4-1.6 0-1.1.5-2.1 1-2.2 12.1-3.1 33.4-9 38-10.6 3.3-1.1 6.7-2.2 7.5-2.3.8-.2 1.5-.4 1.5-.5 0-.1.7-.3 1.5-.5 4.5-1 44.5-16.2 52-19.7 2.5-1.2 5-2.2 5.5-2.4.6-.1 3.3-1.3 6-2.6 20.5-10.2 26.2-13.1 27.5-13.8.8-.5 5.1-2.8 9.5-5.1s8.2-4.4 8.5-4.8c.3-.3 2.2-1.4 4.2-2.5 2-1 4.5-2.6 5.6-3.5 1.7-1.5 2.9-2.3 8.5-5.4 1.2-.6 2.6-1.8 3-2.5.4-.6 1.4-1.2 2-1.2.7 0 2.8-1.3 4.7-3 1.9-1.6 3.8-2.9 4.2-3 .7 0 4.2-2.5 12.8-9 8.8-6.7 22.8-18.3 30.4-25.3 4.9-4.5 9.8-9 10.9-10 1.1-.9 1.5-1.7.8-1.7s-.9-.5-.6-1c.4-.6 1.2-.7 1.8-.4.7.4.9.3.4-.1-.4-.5.3-1.9 1.5-3.2 1.2-1.2 2-2.4 1.7-2.6-.2-.2-3.1 2.4-6.4 5.7zM745.5 809c-.3.5-1.2 1-1.8 1-.7 0-.6-.4.3-1 1.9-1.2 2.3-1.2 1.5 0zm-40.2 15.2c.3.8-.5 1.3-2.2 1.4-1.4.1-3.7.4-5 .7-3.8 1-1.1-1 2.9-2.1 1.9-.6 3.6-1.1 3.6-1.1.1-.1.4.5.7 1.1zm-16.5 3.4c-.4.3-3.9 1.4-7.8 2.4s-6.9 1.5-6.5 1.2c.3-.4 3.4-1.4 6.8-2.4 7-1.8 8.3-2 7.5-1.2zM538 848c0 .5-.5 1-1.1 1-.5 0-.7-.5-.4-1 .3-.6.8-1 1.1-1 .2 0 .4.4.4 1zm5 .5c0 .2-.9.3-1.9.2-1.1 0-1.8-.5-1.5-.9.4-.6 3.4 0 3.4.7zM957.2 707.9c-4 3.9-7.2 7.3-7.2 7.6 0 .4.6 0 1.3-.7.8-.7 2.9-2.7 4.8-4.4 4.2-3.8 9.4-9.4 8.8-9.4-.3 0-3.7 3.1-7.7 6.9zM923.9 724.7c-1.3 1.6-1.2 1.7.4.4 1.6-1.3 2.1-2.1 1.3-2.1-.2 0-1 .8-1.7 1.7zM918.3 726.7c-.7.3-1.3.8-1.3 1.3 0 1 2.4.7 2.8-.4.5-1.1-.1-1.4-1.5-.9zM913.4 730.4c-.3.8-1.9 2-3.5 2.6-1.6.7-2.9 1.7-2.9 2.2 0 .6 1.2.2 2.8-.8 1.5-1 3.7-2.3 4.9-2.9 1.3-.7 2-1.5 1.6-1.8-1.1-1.1-2.3-.8-2.9.7zM901.6 739c-4.5 3.4-6.2 5.2-2.6 2.7 1.4-1 3.5-2.2 4.8-2.9 1.2-.6 2.2-1.5 2.2-2 0-1.1 0-1.1-4.4 2.2z"/><path d="M877.9 742.7c-1.3 1.7-1.3 1.7.6.3 1.1-.8 2.2-1.6 2.4-1.7.2-.2 0-.3-.6-.3s-1.7.8-2.4 1.7zM872 746.3c-1.9 1.2-5.2 3.1-7.2 4.2-2.1 1-3.6 2.1-3.4 2.3.5.4 9.5-4.4 12.6-6.9 3.4-2.6 2.2-2.4-2 .4zM851 755.1c0 .5.5.7 1 .4.6-.3 1-.8 1-1.1 0-.2-.4-.4-1-.4-.5 0-1 .5-1 1.1zM858 755c-.9.6-1 1-.3 1 .6 0 1.5-.5 1.8-1 .8-1.2.4-1.2-1.5 0zM159 758.4c0 .2.8 1 1.8 1.7 1.5 1.3 1.6 1.2.3-.4s-2.1-2.1-2.1-1.3zM841.8 759.3c-1.6.6-2.8 1.4-2.8 1.9 0 .4-.5.8-1.1.8-1.7 0-11.9 5.1-11.9 5.9 0 .7 18.5-8.2 19.9-9.5.7-.7-1.3-.2-4.1.9zM169.4 765.1c3.8 2.2 7.1 3.8 7.3 3.6.4-.5-12.3-7.7-13.5-7.7-.4 0 2.4 1.8 6.2 4.1zM195 764.7c.8.3 2.4 1.3 3.5 2.2 2 1.6 2 1.6.1-.7-1.1-1.2-2.6-2.2-3.5-2.1-1.4 0-1.4.1-.1.6zM880 765c-.9.6-1 1-.3 1 .6 0 1.5-.5 1.8-1 .8-1.2.4-1.2-1.5 0zM202.2 768.6c1 1 2 1.6 2.2 1.3.3-.3-.5-1.1-1.7-1.8-2.1-1.3-2.1-1.2-.5.5zM178.8 770.7c.7.3 1.6.2 1.9-.1.4-.3-.2-.6-1.3-.5-1.1 0-1.4.3-.6.6zM223.5 771c.3.5.8 1 1.1 1 .2 0 .4-.5.4-1 0-.6-.5-1-1.1-1-.5 0-.7.4-.4 1zM226.6 773.1c.3.6.8.8 1.1.5.3-.3 1.5 0 2.7.6 1.6.8 1.8.8 1-.1-1.4-1.5-5.7-2.4-4.8-1zM233.5 776c.3.5 1.1 1 1.6 1 .6 0 .7-.5.4-1-.3-.6-1.1-1-1.6-1-.6 0-.7.4-.4 1zM237.1 777.4c.2.2 1.5.9 2.9 1.6 2.3 1.2 2.4 1.2 1.1-.3-.7-1-2-1.7-2.9-1.7-.8 0-1.3.2-1.1.4zM777 792c-.9.6-1 1-.3 1 .6 0 1.5-.5 1.8-1 .8-1.2.4-1.2-1.5 0zM287 796.1c0 .5.5.7 1 .4.6-.3 1-.8 1-1.1 0-.2-.4-.4-1-.4-.5 0-1 .5-1 1.1zM758 799c-.9.6-1 1-.3 1 .6 0 1.5-.5 1.8-1 .8-1.2.4-1.2-1.5 0zM749.5 802c-.3.5-.1 1 .4 1 .6 0 1.1-.5 1.1-1 0-.6-.2-1-.4-1-.3 0-.8.4-1.1 1zM742 804c-.8.5-1 1-.5 1 .6 0 1.7-.5 2.5-1s1.1-1 .5-1c-.5 0-1.7.5-2.5 1zM736.5 806c-.3.6.1.7.9.4 1.8-.7 2.1-1.4.7-1.4-.6 0-1.3.4-1.6 1zM730.8 807.4c-2 .6-4 1.4-4.3 1.8-1.1 1 6.8-1.2 8-2.3 1-1 1.2-1.1-3.7.5zM766 807c-.8.5-1 1-.5 1 .6 0 1.7-.5 2.5-1s1.1-1 .5-1c-.5 0-1.7.5-2.5 1zM755.5 810.1c-3.3 1.1-6.4 2.1-7 2.3-.5.2-2.5.7-4.2 1.1-1.8.4-3.3 1.2-3.3 1.7s.3.7.8.5c.4-.2 4.8-1.7 9.7-3.2 5-1.5 9.4-3.2 10-3.6 1.1-1.1 1.3-1.1-6 1.2zM263 810.1c0 .5.9.9 2 .9s2-.2 2-.4-.9-.6-2-.9c-1.1-.3-2-.1-2 .4zM709.4 811.2c-.3.4.5.5 1.7.3 3-.6 3.6-1.4.9-1.2-1.2.1-2.4.5-2.6.9zM268.5 812c.3.5.8 1 1.1 1 .2 0 .4-.5.4-1 0-.6-.5-1-1.1-1-.5 0-.7.4-.4 1zM271.7 813c.8.8 19.6 7.1 21 7.2.5 0 1.3.3 1.8.8.6.4 2.6 1.1 4.5 1.6 5 1.1 5 1.1 5.3 1.4.1.1 1.6.3 3.2.6 2.4.3 2.6.2 1-.6-3.5-1.5-37.7-11.8-36.8-11zM732 817.1c-3.6 1.2-6.9 2.5-7.5 3-.5.6.9.3 3.3-.5 2.3-.8 4.4-1.6 4.7-1.6.9-.1 4-1.2 6-2 3.6-1.6.1-.9-6.5 1.1zM719.5 821c-1.3.6-1.5.9-.5.9.8 0 2.2-.4 3-.9 1.8-1.2.2-1.2-2.5 0zM714.3 822c-3 1.2-2.9 1.8.2 1.2 1.4-.2 2.5-.8 2.5-1.3s-.1-.9-.2-.8c-.2 0-1.3.4-2.5.9zM669.8 822.7c.7.3 1.6.2 1.9-.1.4-.3-.2-.6-1.3-.5-1.1 0-1.4.3-.6.6zM708.6 823.8c-.3.5.1.9.9.9s1.5-.4 1.5-.9c0-.4-.4-.8-.9-.8-.6 0-1.2.4-1.5.8zM633.5 825c-.3.6.1.7.9.4 1.8-.7 2.1-1.4.7-1.4-.6 0-1.3.4-1.6 1zM728 825c-.8.5-1 1-.5 1 .6 0 1.7-.5 2.5-1s1.1-1 .5-1c-.5 0-1.7.5-2.5 1zM655.8 825.7c.7.3 1.6.2 1.9-.1.4-.3-.2-.6-1.3-.5-1.1 0-1.4.3-.6.6zM646.8 826.7c.7.3 1.6.2 1.9-.1.4-.3-.2-.6-1.3-.5-1.1 0-1.4.3-.6.6z"/><path d="M721 826.7c-1.4.3-2.9.8-3.4 1.3-.4.5 1.1.4 3.5-.1 6.7-1.5 6.6-2.4-.1-1.2zM597.6 830.2c.3.5 1 .6 1.5.3 1.3-.9 1.1-1.2-.6-1.2-.8 0-1.2.4-.9.9zM626.6 830.2c.3.5 1 .6 1.5.3 1.3-.9 1.1-1.2-.6-1.2-.8 0-1.2.4-.9.9zM364 830.4c0 .2.7.7 1.6 1 .8.3 1.2.2.9-.4-.6-1-2.5-1.4-2.5-.6zM585 831.1c0 .5.5.7 1 .4.6-.3 1-.8 1-1.1 0-.2-.4-.4-1-.4-.5 0-1 .5-1 1.1zM592.8 830.7c.7.3 1.6.2 1.9-.1.4-.3-.2-.6-1.3-.5-1.1 0-1.4.3-.6.6zM611.5 830.9c-1.1.5-2.5.6-3.1.4-.7-.2-1.5 0-1.8.5-.7 1.2 4.9.6 7.2-.8 2-1.1.5-1.2-2.3-.1zM441.6 831.8c-.3.4.4.9 1.5.9 2.3.2 2.5-.3.4-1-.8-.4-1.6-.3-1.9.1zM569 832c0 .5.5 1 1.1 1 .5 0 .7-.5.4-1-.3-.6-.8-1-1.1-1-.2 0-.4.4-.4 1zM448.4 832.7c1.3 1.4 13.6 2.6 13.6 1.4 0-.4-2.2-.8-4.9-1-2.8-.1-6-.4-7.2-.6-1.2-.2-1.9-.1-1.5.2zM563.5 833.2c-2.7 1.6-3.7 1.8-13.7 2.1-4.9.1-8.8.5-8.8.9 0 .9 19.6.5 20.6-.4.4-.4 1.3-.3 2.1.3.9.9 1.3.8 1.3 0 0-.6-.5-1.1-1.2-1.1-.6 0-.3-.7.8-1.5 2.3-1.7 1.7-1.9-1.1-.3zM378.8 833.7c.7.3 1.6.2 1.9-.1.4-.3-.2-.6-1.3-.5-1.1 0-1.4.3-.6.6zM463 834.2c0 .6.3.8.7.5.3-.4 1.2-.2 2 .4 1 .9 1.3.8 1.3-.3 0-.7-.9-1.4-2-1.5-1.1-.1-2 .3-2 .9zM468 834.4c0 .7 6 1.2 7 .6.6-.4-.7-.7-3-.8-2.2-.1-4 0-4 .2zM566 835.3c0 .4 2 .7 4.5.6 5.8-.3 5.9-1.5 0-1.4-2.5 0-4.5.4-4.5.8zM372 835.3c.3.3 2.5.8 5 1.2 2.4.4 4.9.9 5.5 1.2.5.3.5.1-.1-.6s-3.3-1.5-6-1.7c-2.7-.3-4.7-.4-4.4-.1zM538.3 836.5c0 .8.4 1.2.9.9.5-.3.6-1 .3-1.5-.9-1.3-1.2-1.1-1.2.6zM385.5 838c2.4 1 6.1 1.3 5.2.3-.4-.3-2.2-.7-3.9-.9-2.6-.2-2.9-.1-1.3.6zM476.7 838.1c.7.7 1.5 1 1.8.7.3-.3-.2-.9-1.2-1.2-1.4-.6-1.5-.5-.6.5zM487.8 838.7c.7.3 1.6.2 1.9-.1.4-.3-.2-.6-1.3-.5-1.1 0-1.4.3-.6.6zM491.8 838.7c.7.3 1.6.2 1.9-.1.4-.3-.2-.6-1.3-.5-1.1 0-1.4.3-.6.6zM481.8 849.7c.7.3 1.6.2 1.9-.1.4-.3-.2-.6-1.3-.5-1.1 0-1.4.3-.6.6zM485.4 849.9c.3.5 1.5.7 2.6.4 2.8-.7 2.5-1.3-.6-1.3-1.4 0-2.3.4-2 .9zM493 850c0 .4 2.7.7 6 .8 3.3 0 6-.3 6-.7 0-.4-2.7-.7-6-.7s-6 .2-6 .6zM506 850.2c0 .4.7.8 1.5.8s1.5-.4 1.5-.8c0-.5-.7-.9-1.5-.9s-1.5.4-1.5.9zM461.8 853.7c.7.3 1.6.2 1.9-.1.4-.3-.2-.6-1.3-.5-1.1 0-1.4.3-.6.6zM465.6 854.2c.3.4 1.1.5 1.9.1 2.1-.7 1.9-1.2-.4-1-1.1 0-1.8.5-1.5.9zM567.9 853.4c-.2.2-4.2.6-8.8.9-4.6.4-8.6.9-8.9 1.2-.6.5 18.1-.5 18.7-1.1.2-.2.2-.6-.1-.9-.2-.3-.7-.3-.9-.1zM475.8 854.7c.6.2 1.8.2 2.5 0 .6-.3.1-.5-1.3-.5-1.4 0-1.9.2-1.2.5zM482.6 855.2c.3.5 1 .6 1.5.3 1.3-.9 1.1-1.2-.6-1.2-.8 0-1.2.4-.9.9zM534.8 855.7c.7.3 1.6.2 1.9-.1.4-.3-.2-.6-1.3-.5-1.1 0-1.4.3-.6.6zM538.8 855.7c.6.2 1.8.2 2.5 0 .6-.3.1-.5-1.3-.5-1.4 0-1.9.2-1.2.5zM546.8 855.7c.7.3 1.6.2 1.9-.1.4-.3-.2-.6-1.3-.5-1.1 0-1.4.3-.6.6z"/></svg>